Coordinates
version=1
nRows=29
nColumns=24
inDegrees=yes

Units are S.I. units (second, meters, Newtons, ...)
Angles are in degrees.

endheader
time	pelvis_tilt	pelvis_list	pelvis_rotation	pelvis_tx	pelvis_ty	pelvis_tz	hip_flexion_r	hip_adduction_r	hip_rotation_r	knee_angle_r	ankle_angle_r	subtalar_angle_r	mtp_angle_r	hip_flexion_l	hip_adduction_l	hip_rotation_l	knee_angle_l	ankle_angle_l	subtalar_angle_l	mtp_angle_l	lumbar_extension	lumbar_bending	lumbar_rotation
      2.04000000	     13.91596215	      3.01902559	     -3.28005140	      0.50363630	      0.94680650	      0.27096107	      5.96660112	     -6.22210771	     -0.99342980	    -68.84904215	     18.55739784	      5.96567441	     48.26787244	     -4.22552619	      8.29859008	     -5.36044403	    -19.97574316	     21.88903950	      5.91606753	     15.13849362	    -28.58652078	     -3.66048775	      7.12909160
      2.04500000	     14.12687108	      2.98981921	     -3.08781086	      0.51005135	      0.94776683	      0.27076602	      6.35058521	     -6.23370300	     -1.24474467	    -68.33007977	     19.18836789	      6.28791459	     47.29211045	     -5.16782928	      8.24289593	     -5.36490337	    -19.49540267	     22.19789046	      6.44470270	     14.47207850	    -28.80235275	     -3.50007963	      6.86640373
      2.05000000	     14.12623285	      3.00964310	     -2.95849397	      0.51628422	      0.94827353	      0.27079821	      7.05237030	     -6.24070623	     -1.33898490	    -67.82967645	     19.44735697	      6.45013301	     47.25896922	     -5.81964085	      8.21748725	     -5.45952809	    -19.06111846	     22.35174676	      6.95173507	     14.45828783	    -28.79708702	     -3.43117934	      6.65463154
      2.05500000	     14.25262160	      2.90011460	     -2.89918498	      0.52232704	      0.94894426	      0.27112004	      7.55682319	     -6.07237745	     -1.39041139	    -67.16073217	     19.82273380	      6.27897268	     46.92295467	     -6.62089432	      8.02278553	     -5.73662821	    -18.61416951	     22.67242775	      7.71009238	     14.26808325	    -28.94567510	     -3.27491393	      6.57878587
      2.06000000	     14.32245312	      2.89881455	     -2.81539271	      0.52839045	      0.94946761	      0.27132146	      8.11003085	     -6.05650414	     -1.48639777	    -66.45837677	     20.20440838	      6.10453515	     46.63915992	     -7.34155867	      7.93599386	     -5.88796103	    -18.20541419	     22.88999553	      8.48000080	     14.01146766	    -29.02940892	     -3.20553171	      6.41399175
      2.06500000	     14.47270145	      2.84451250	     -2.67564559	      0.53459866	      0.95012933	      0.27133877	      8.49344986	     -6.00955376	     -1.66893291	    -65.62810712	     20.53488571	      6.02841979	     46.40491090	     -8.19526237	      7.82160030	     -5.89894665	    -17.72670096	     23.08172516	      9.06320410	     13.73273725	    -29.20027556	     -3.06161652	      6.21684065
      2.07000000	     14.62663031	      2.82474354	     -2.59204289	      0.54084636	      0.95063318	      0.27142931	      8.90684266	     -6.00201189	     -1.80346491	    -64.84203048	     20.92437640	      6.02694860	     46.16243461	     -9.06872507	      7.76026284	     -5.96611618	    -17.21039034	     23.27897858	      9.58940231	     13.45861505	    -29.36047380	     -2.97112967	      6.08661962
      2.07500000	     14.85595464	      2.78598442	     -2.46648600	      0.54710574	      0.95121279	      0.27143370	      9.15284614	     -5.96956633	     -1.95786161	    -63.90762649	     21.36872504	      5.95960019	     45.77132057	    -10.00817525	      7.67663772	     -5.98388804	    -16.73018754	     23.49275981	     10.08059168	     12.93016696	    -29.59025534	     -2.83533287	      5.90493119
      2.08000000	     15.02677014	      2.79547941	     -2.30447304	      0.55322424	      0.95159149	      0.27131104	      9.47054517	     -6.03371577	     -2.19441490	    -62.92251493	     21.86394955	      6.20297450	     45.49030617	    -10.91734819	      7.66538850	     -5.78628999	    -16.15688025	     23.64144229	     10.33697289	     12.67127698	    -29.78100696	     -2.73211552	      5.69004230
      2.08500000	     15.18168742	      2.83183648	     -2.20103497	      0.55943235	      0.95191913	      0.27128119	      9.80241016	     -6.09201564	     -2.34500033	    -61.94009779	     22.17413956	      6.21249219	     44.63212954	    -11.83577287	      7.70409736	     -5.61285979	    -15.53063869	     23.82681496	     10.59974053	     11.92405167	    -29.94856121	     -2.67556873	      5.50434476
      2.09000000	     15.25035554	      2.86815245	     -2.02498373	      0.56560624	      0.95198406	      0.27127297	     10.22991466	     -6.15645036	     -2.54508950	    -60.96003580	     22.26584073	      6.21378131	     44.67333416	    -12.57587151	      7.71082599	     -5.32098741	    -15.10198183	     23.96958062	     10.70176533	     11.83164909	    -30.02599402	     -2.60229025	      5.23085860
      2.09500000	     15.33887605	      2.89257716	     -1.96978611	      0.57171258	      0.95200900	      0.27133386	     10.63794911	     -6.23322115	     -2.66993857	    -59.90857935	     22.53519818	      6.49926862	     44.59301322	    -13.38347387	      7.74922107	     -5.08118981	    -14.56552422	     24.01508445	     10.71853318	     11.73544213	    -30.11919037	     -2.55911045	      5.13092897
      2.10000000	     15.47881558	      2.90277652	     -1.85637555	      0.57771831	      0.95209877	      0.27134328	     10.89282189	     -6.26364767	     -2.79372251	    -58.66628621	     22.77305807	      6.78703002	     44.38595149	    -14.22656162	      7.75560007	     -4.87401112	    -14.01478740	     24.11455527	     10.76397368	     11.56582067	    -30.28250290	     -2.47782225	      4.96629189
      2.10500000	     15.67189682	      2.89442410	     -1.78884215	      0.58383434	      0.95219035	      0.27152938	     11.06704976	     -6.24782962	     -2.86655712	    -57.40391517	     23.07061415	      7.01104929	     44.00224929	    -15.14223914	      7.74423832	     -4.74234539	    -13.44062469	     24.05674082	     10.83141150	     11.37771126	    -30.49786350	     -2.42622350	      4.82488072
      2.11000000	     15.86165560	      2.83214239	     -1.65789236	      0.59004952	      0.95222681	      0.27170396	     11.18821900	     -6.15860314	     -2.94985328	    -56.09401327	     22.99623086	      6.85484854	     43.81920152	    -16.05399866	      7.64642310	     -4.63401985	    -12.86544365	     24.31883033	     10.93663029	     11.08696651	    -30.70344562	     -2.27699144	      4.70956588
      2.11500000	     15.99005710	      2.75313996	     -1.56154465	      0.59616292	      0.95207618	      0.27183374	     11.36760669	     -6.05698110	     -3.06426007	    -54.69991488	     23.00452488	      6.64270843	     43.79652298	    -16.82318686	      7.53765565	     -4.55327466	    -12.47430195	     24.46451243	     11.20952634	     10.57981307	    -30.84698841	     -2.11755109	      4.65881012
      2.12000000	     15.98461018	      2.74557036	     -1.39105638	      0.60217083	      0.95165847	      0.27187495	     11.68715477	     -6.04029010	     -3.23328938	    -53.27773070	     23.02528744	      6.69537228	     43.74284268	    -17.43406776	      7.48640928	     -4.33665937	    -12.08331414	     24.71716846	     11.15725920	     10.37784978	    -30.85854404	     -2.00903870	      4.47111308
      2.12500000	     16.14614793	      2.67524748	     -1.26675015	      0.60832420	      0.95145463	      0.27221271	     11.75478429	     -5.95133589	     -3.42505775	    -51.75327082	     23.02863368	      6.79134650	     43.62988731	    -18.25214945	      7.35332595	     -4.23862105	    -11.67083400	     24.95648644	     11.28949314	     10.07241757	    -31.04173853	     -1.87579375	      4.31229599
      2.13000000	     16.29827723	      2.55406352	     -1.11475938	      0.61447854	      0.95123966	      0.27247459	     11.78504733	     -5.80629908	     -3.63946921	    -50.15916323	     22.98161450	      6.82485413	     43.64306753	    -19.01739366	      7.16100626	     -4.13834145	    -11.33765219	     25.16396842	     11.44688008	      9.81509888	    -31.22020016	     -1.68061473	      4.19179855
      2.13500000	     16.43501685	      2.42191479	     -0.99817640	      0.62059570	      0.95095334	      0.27281166	     11.80063281	     -5.60422337	     -3.73138187	    -48.48941555	     22.81913317	      6.76470663	     43.60769996	    -19.75046475	      6.95825673	     -4.10691545	    -11.03181044	     25.39878537	     11.66685677	      9.51115843	    -31.37224413	     -1.48599670	      4.11124767
      2.14000000	     16.51518434	      2.35447518	     -0.94140857	      0.62671811	      0.95050388	      0.27314818	     11.85393441	     -5.47156447	     -3.71907250	    -46.73542624	     22.65549038	      6.74514926	     43.56658258	    -20.42082483	      6.84621399	     -4.08116159	    -10.72691054	     25.58130171	     11.91245949	      9.11570720	    -31.47787153	     -1.38037845	      4.07909522
      2.14500000	     16.61444658	      2.24592807	     -0.85953045	      0.63281805	      0.94999114	      0.27351011	     11.89886210	     -5.29956141	     -3.82204567	    -45.05091383	     22.29421041	      6.58811638	     43.58873861	    -21.08738582	      6.67989128	     -4.00516981	    -10.46793529	     25.94523917	     12.04138553	      8.81892984	    -31.60344374	     -1.23423108	      3.97414721
      2.15000000	     16.70259352	      2.15481564	     -0.77524785	      0.63879506	      0.94945323	      0.27393162	     11.92332376	     -5.12056969	     -3.87203080	    -43.27077619	     21.85344031	      6.25125537	     44.45324880	    -21.67443870	      6.51037255	     -4.01303425	    -10.31557976	     26.41036884	     12.32512838	      7.45545540	    -31.72663593	     -1.09805590	      3.97436869
      2.15500000	     16.76780162	      2.11043234	     -0.64860352	      0.64484443	      0.94885546	      0.27416206	     11.93027668	     -5.02666477	     -3.96322531	    -41.45540886	     21.57775918	      6.09305837	     44.45165518	    -22.25980635	      6.39594594	     -3.86475911	    -10.12623241	     26.65408663	     12.36354189	      7.39129877	    -31.82633940	     -0.97755275	      3.85082779
      2.16000000	     16.81283386	      2.08175414	     -0.52609273	      0.65074553	      0.94816947	      0.27454499	     11.94072916	     -4.93666530	     -4.06662955	    -39.59912818	     21.32168085	      5.93405170	     44.45750019	    -22.77228931	      6.28116503	     -3.76126131	    -10.01478968	     26.94411335	     12.49830973	      7.30622593	    -31.91896697	     -0.90026210	      3.65218252
      2.16500000	     16.83181752	      2.02519477	     -0.41474863	      0.65665235	      0.94747744	      0.27482409	     11.92026946	     -4.80183815	     -4.06352104	    -37.62192958	     20.98424896	      5.70276098	     44.47157148	    -23.26026406	      6.16205096	     -3.58122787	     -9.90221633	     27.22516979	     12.48230415	      7.23078942	    -31.97728844	     -0.78334862	      3.58559072
      2.17000000	     16.88551999	      1.97055476	     -0.29190555	      0.66251832	      0.94677350	      0.27527680	     11.82461836	     -4.66161417	     -4.08818198	    -35.59555232	     20.69548168	      5.55901024	     44.61160088	    -23.73894294	      6.01079467	     -3.47149701	     -9.88398377	     27.50590804	     12.62178845	      7.10538859	    -32.08588755	     -0.67147695	      3.52945250
      2.17500000	     16.89866318	      1.86169238	     -0.15015772	      0.66855887	      0.94599699	      0.27566554	     11.71009207	     -4.45446618	     -4.10374139	    -33.48610192	     20.26483341	      5.40417150	     44.68744627	    -24.22571985	      5.81057578	     -3.24179133	     -9.78238238	     27.82968880	     12.60650638	      7.04157166	    -32.13351162	     -0.50188871	      3.36265803
      2.18000000	     16.88781455	      1.79930141	     -0.07510220	      0.67453268	      0.94516941	      0.27615482	     11.62195854	     -4.28581732	     -4.02844608	    -31.37056588	     19.70656243	      5.28799622	     44.81118533	    -24.66053952	      5.67789079	     -3.06388978	     -9.71772946	     28.07603039	     12.60163711	      6.98380088	    -32.16048273	     -0.41326674	      3.25353209
